<svg width="649" height="217" viewBox="0 0 649 217" fill="none" xmlns="http://www.w3.org/2000/svg">
<path d="M55.9813 190V193H58.9813V190H55.9813ZM40.8813 190H37.8813V193H40.8813V190ZM40.8813 167.8H43.8813V166.896L43.3817 166.142L40.8813 167.8ZM11.1812 123V120H5.59304L8.68081 124.658L11.1812 123ZM29.6813 123L32.1931 121.36L31.3051 120H29.6813V123ZM42.4813 142.6L45.0284 141.015L45.011 140.987L44.9931 140.96L42.4813 142.6ZM48.0813 151.6L45.5341 153.185L46.4146 154.6H48.0813V151.6ZM49.1813 151.6V154.6H50.8479L51.7284 153.185L49.1813 151.6ZM54.7813 142.6L52.2694 140.96L52.2515 140.987L52.2341 141.015L54.7813 142.6ZM67.5813 123V120H65.9574L65.0694 121.36L67.5813 123ZM86.1813 123L88.6706 124.674L91.8145 120H86.1813V123ZM55.9813 167.9L53.4919 166.226L52.9813 166.985V167.9H55.9813ZM55.9813 187H40.8813V193H55.9813V187ZM43.8813 190V167.8H37.8813V190H43.8813ZM43.3817 166.142L13.6817 121.342L8.68081 124.658L38.3808 169.458L43.3817 166.142ZM11.1812 126H29.6813V120H11.1812V126ZM27.1694 124.64L39.9694 144.24L44.9931 140.96L32.1931 121.36L27.1694 124.64ZM39.9341 144.185L45.5341 153.185L50.6284 150.015L45.0284 141.015L39.9341 144.185ZM48.0813 154.6H49.1813V148.6H48.0813V154.6ZM51.7284 153.185L57.3284 144.185L52.2341 141.015L46.6341 150.015L51.7284 153.185ZM57.2931 144.24L70.0931 124.64L65.0694 121.36L52.2694 140.96L57.2931 144.24ZM67.5813 126H86.1813V120H67.5813V126ZM83.6919 121.326L53.4919 166.226L58.4706 169.574L88.6706 124.674L83.6919 121.326ZM52.9813 167.9V190H58.9813V167.9H52.9813ZM165.684 123V120H162.684V123H165.684ZM180.684 123H183.684V120H180.684V123ZM216.484 123V120H213.484V123H216.484ZM231.484 123H234.484V120H231.484V123ZM198.584 188C188.155 188 180.75 185.37 175.977 181.03C171.245 176.729 168.684 170.369 168.684 162H162.684C162.684 171.631 165.672 179.771 171.941 185.47C178.167 191.13 187.212 194 198.584 194V188ZM168.684 162V123H162.684V162H168.684ZM165.684 126H180.684V120H165.684V126ZM177.684 123V160.9H183.684V123H177.684ZM177.684 160.9C177.684 166.846 178.779 171.846 182.548 175.174C186.201 178.399 191.664 179.4 198.584 179.4V173.4C191.903 173.4 188.416 172.351 186.519 170.676C184.739 169.104 183.684 166.354 183.684 160.9H177.684ZM198.584 179.4C205.546 179.4 211.017 178.402 214.662 175.169C218.42 171.836 219.484 166.83 219.484 160.9H213.484C213.484 166.37 212.447 169.114 210.681 170.681C208.8 172.348 205.321 173.4 198.584 173.4V179.4ZM219.484 160.9V123H213.484V160.9H219.484ZM216.484 126H231.484V120H216.484V126ZM228.484 123V162H234.484V123H228.484ZM228.484 162C228.484 170.377 225.943 176.734 221.226 181.032C216.467 185.368 209.065 188 198.584 188V194C210.002 194 219.05 191.132 225.267 185.468C231.525 179.766 234.484 171.623 234.484 162H228.484ZM254.035 190V193H257.035V190H254.035ZM239.035 190H236.035V193H239.035V190ZM239.035 123V120H236.035V123H239.035ZM283.035 161.7L282.751 158.714L280.035 158.972V161.7H283.035ZM283.035 162.5H280.035V164.805L282.262 165.399L283.035 162.5ZM293.835 172L291.187 173.409L291.19 173.416L291.194 173.423L293.835 172ZM303.535 190V193H308.56L306.176 188.577L303.535 190ZM286.135 190L283.483 191.402L284.328 193H286.135V190ZM276.935 172.6L274.273 173.982L274.278 173.992L274.283 174.002L276.935 172.6ZM254.035 165.7V162.7H251.035V165.7H254.035ZM254.035 136.5V133.5H251.035V136.5H254.035ZM254.035 154.4H251.035V157.4H254.035V154.4ZM254.035 187H239.035V193H254.035V187ZM242.035 190V123H236.035V190H242.035ZM239.035 126H276.035V120H239.035V126ZM276.035 126C283.897 126 289.631 127.746 293.333 130.62C296.926 133.409 298.935 137.51 298.935 143.1H304.935C304.935 135.89 302.244 129.941 297.012 125.88C291.889 121.904 284.673 120 276.035 120V126ZM298.935 143.1C298.935 147.954 297.549 151.465 295.093 153.912C292.595 156.4 288.621 158.154 282.751 158.714L283.32 164.686C290.05 164.046 295.526 161.95 299.327 158.163C303.171 154.335 304.935 149.146 304.935 143.1H298.935ZM280.035 161.7V162.5H286.035V161.7H280.035ZM282.262 165.399C284.835 166.085 286.437 167.056 287.659 168.241C288.942 169.485 289.962 171.107 291.187 173.409L296.484 170.591C295.208 168.193 293.828 165.865 291.836 163.934C289.784 161.944 287.235 160.515 283.808 159.601L282.262 165.399ZM291.194 173.423L300.894 191.423L306.176 188.577L296.476 170.577L291.194 173.423ZM303.535 187H286.135V193H303.535V187ZM288.787 188.598L279.587 171.198L274.283 174.002L283.483 191.402L288.787 188.598ZM279.598 171.218C278.153 168.435 276.512 166.08 273.803 164.577C271.177 163.119 267.964 162.7 263.935 162.7V168.7C267.706 168.7 269.644 169.131 270.892 169.823C272.058 170.47 273.018 171.565 274.273 173.982L279.598 171.218ZM263.935 162.7H254.035V168.7H263.935V162.7ZM251.035 165.7V190H257.035V165.7H251.035ZM251.035 136.5V154.4H257.035V136.5H251.035ZM254.035 157.4H275.935V151.4H254.035V157.4ZM275.935 157.4C279.598 157.4 283.099 156.924 285.643 154.851C288.353 152.642 289.235 149.28 289.235 145.4H283.235C283.235 148.52 282.518 149.658 281.853 150.199C281.022 150.876 279.372 151.4 275.935 151.4V157.4ZM289.235 145.4C289.235 141.665 288.325 138.375 285.663 136.166C283.143 134.075 279.671 133.5 275.935 133.5V139.5C279.299 139.5 280.977 140.075 281.832 140.784C282.545 141.375 283.235 142.535 283.235 145.4H289.235ZM275.935 133.5H254.035V139.5H275.935V133.5ZM383.533 190V193H385.536L386.304 191.15L383.533 190ZM362.133 190L359.362 191.15L360.13 193H362.133V190ZM334.333 123V120H329.84L331.562 124.15L334.333 123ZM352.433 123L355.23 121.915L354.487 120H352.433V123ZM372.533 174.8L369.736 175.885L370.479 177.8H372.533V174.8ZM373.533 174.8V177.8H375.598L376.335 175.871L373.533 174.8ZM393.333 123V120H391.268L390.531 121.929L393.333 123ZM411.333 123L414.104 124.15L415.826 120H411.333V123ZM383.533 187H362.133V193H383.533V187ZM364.904 188.85L337.104 121.85L331.562 124.15L359.362 191.15L364.904 188.85ZM334.333 126H352.433V120H334.333V126ZM349.636 124.085L369.736 175.885L375.33 173.715L355.23 121.915L349.636 124.085ZM372.533 177.8H373.533V171.8H372.533V177.8ZM376.335 175.871L396.135 124.071L390.531 121.929L370.731 173.729L376.335 175.871ZM393.333 126H411.333V120H393.333V126ZM408.562 121.85L380.762 188.85L386.304 191.15L414.104 124.15L408.562 121.85ZM506.672 190V193H509.672V190H506.672ZM491.672 190H488.672V193H491.672V190ZM491.672 123V120H488.672V123H491.672ZM506.672 123H509.672V120H506.672V123ZM506.672 187H491.672V193H506.672V187ZM494.672 190V123H488.672V190H494.672ZM491.672 126H506.672V120H491.672V126ZM503.672 123V190H509.672V123H503.672ZM583.023 150.9V153.9H586.023V150.9H583.023ZM566.323 150.9H563.323V153.9H566.323V150.9ZM566.323 162.1V159.1H563.323V162.1H566.323ZM583.023 162.1H586.023V159.1H583.023V162.1ZM548.823 188C538.393 188 530.248 184.801 524.727 179.436C519.213 174.078 516.023 166.278 516.023 156.5H510.023C510.023 167.622 513.684 177.072 520.545 183.739C527.399 190.399 537.154 194 548.823 194V188ZM516.023 156.5C516.023 146.722 519.213 138.922 524.727 133.564C530.248 128.199 538.393 125 548.823 125V119C537.154 119 527.399 122.601 520.545 129.261C513.684 135.928 510.023 145.378 510.023 156.5H516.023ZM548.823 125C558.759 125 566.584 127.486 571.858 131.674C577.055 135.801 580.023 141.767 580.023 149.4H586.023C586.023 140.033 582.292 132.299 575.589 126.976C568.963 121.714 559.688 119 548.823 119V125ZM580.023 149.4V150.9H586.023V149.4H580.023ZM583.023 147.9H566.323V153.9H583.023V147.9ZM569.323 150.9V149.4H563.323V150.9H569.323ZM569.323 149.4C569.323 144.415 567.878 140.128 564.136 137.228C560.572 134.467 555.453 133.4 549.123 133.4V139.4C554.994 139.4 558.475 140.433 560.461 141.972C562.269 143.372 563.323 145.585 563.323 149.4H569.323ZM549.123 133.4C541.562 133.4 535.488 134.707 531.406 138.725C527.314 142.754 525.923 148.816 525.923 156.5H531.923C531.923 149.284 533.283 145.296 535.616 143C537.959 140.693 541.985 139.4 549.123 139.4V133.4ZM525.923 156.5C525.923 164.184 527.314 170.246 531.406 174.275C535.488 178.293 541.562 179.6 549.123 179.6V173.6C541.985 173.6 537.959 172.307 535.616 170C533.283 167.704 531.923 163.716 531.923 156.5H525.923ZM549.123 179.6C555.453 179.6 560.572 178.533 564.136 175.772C567.878 172.872 569.323 168.585 569.323 163.6H563.323C563.323 167.415 562.269 169.628 560.461 171.028C558.475 172.567 554.994 173.6 549.123 173.6V179.6ZM569.323 163.6V162.1H563.323V163.6H569.323ZM566.323 165.1H583.023V159.1H566.323V165.1ZM580.023 162.1V163.6H586.023V162.1H580.023ZM580.023 163.6C580.023 171.24 577.074 177.205 571.893 181.328C566.634 185.512 558.812 188 548.823 188V194C559.735 194 569.013 191.288 575.629 186.022C582.323 180.695 586.023 172.96 586.023 163.6H580.023ZM646.223 190V193H649.223V190H646.223ZM589.523 190H586.523V193H589.523V190ZM589.523 123V120H586.523V123H589.523ZM646.223 123H649.223V120H646.223V123ZM646.223 136.5V139.5H649.223V136.5H646.223ZM604.523 136.5V133.5H601.523V136.5H604.523ZM604.523 149.6H601.523V152.6H604.523V149.6ZM644.723 149.6H647.723V146.6H644.723V149.6ZM644.723 163V166H647.723V163H644.723ZM604.523 163V160H601.523V163H604.523ZM604.523 176.5H601.523V179.5H604.523V176.5ZM646.223 176.5H649.223V173.5H646.223V176.5ZM646.223 187H589.523V193H646.223V187ZM592.523 190V123H586.523V190H592.523ZM589.523 126H646.223V120H589.523V126ZM643.223 123V136.5H649.223V123H643.223ZM646.223 133.5H604.523V139.5H646.223V133.5ZM601.523 136.5V149.6H607.523V136.5H601.523ZM604.523 152.6H644.723V146.6H604.523V152.6ZM641.723 149.6V163H647.723V149.6H641.723ZM644.723 160H604.523V166H644.723V160ZM601.523 163V176.5H607.523V163H601.523ZM604.523 179.5H646.223V173.5H604.523V179.5ZM643.223 176.5V190H649.223V176.5H643.223Z" fill="#FCEED2"/>
<path d="M99.757 124.997C90.2082 126.972 84.9399 136.521 80.3301 149.691C107.001 125.985 138.94 135.862 157.05 150.349C154.416 142.775 153.561 135.256 143.221 127.301C134.66 120.715 123.794 125.436 118.855 128.948C116.33 127.082 107.989 123.294 99.757 124.997Z" fill="#FB6D33"/>
<path fill-rule="evenodd" clip-rule="evenodd" d="M80 157.265C85.1586 151.228 99.9537 139.353 117.866 140.143C135.778 140.933 151.452 151.887 157.049 157.265C151.781 162.534 136.569 173.005 117.866 172.742C99.1635 172.478 84.8293 162.314 80 157.265ZM118.195 170.467C125.802 170.467 131.969 164.3 131.969 156.693C131.969 149.087 125.802 142.92 118.195 142.92C110.589 142.92 104.422 149.087 104.422 156.693C104.422 164.3 110.589 170.467 118.195 170.467Z" fill="#FCEED2"/>
<path d="M155.731 165.496C119.182 190.517 92.84 171.094 80.9863 164.838C85.1571 172.74 95.1449 190.521 119.84 190.521C145.523 190.521 152.548 174.496 155.731 165.496Z" fill="#FB6D33"/>
<path d="M427.757 124.997C418.208 126.972 412.94 136.521 408.33 149.691C435.001 125.985 466.94 135.862 485.05 150.349C482.416 142.775 481.561 135.256 471.221 127.301C462.66 120.715 451.794 125.436 446.855 128.948C444.33 127.082 435.989 123.294 427.757 124.997Z" fill="#B759EB"/>
<path fill-rule="evenodd" clip-rule="evenodd" d="M408 157.265C413.159 151.228 427.954 139.353 445.866 140.143C463.778 140.933 479.452 151.887 485.049 157.265C479.781 162.534 464.569 173.005 445.866 172.742C427.163 172.478 412.829 162.314 408 157.265ZM446.195 170.467C453.802 170.467 459.969 164.3 459.969 156.693C459.969 149.087 453.802 142.92 446.195 142.92C438.589 142.92 432.422 149.087 432.422 156.693C432.422 164.3 438.589 170.467 446.195 170.467Z" fill="#FCEED2"/>
<path d="M483.731 165.496C447.182 190.517 420.84 171.094 408.986 164.838C413.157 172.74 423.145 190.521 447.84 190.521C473.523 190.521 480.548 174.496 483.731 165.496Z" fill="#B759EB"/>
<path d="M49.2242 85H27.8242L0.0242187 18H18.1242L38.2242 69.8H39.2242L59.0242 18H77.0242L49.2242 85ZM95.2148 85H80.2148V18H95.2148V85ZM133.466 86C113.166 86 101.766 78 101.766 62.4V61.8H116.766V63.6C116.766 69.8 119.866 72.3 133.466 72.3C145.466 72.3 148.266 70.5 148.266 66C148.266 61.9 145.966 60.4 139.066 59.2L120.266 56.5C108.266 54.6 101.166 48.6 101.166 37.7C101.166 27.6 109.366 17 131.866 17C152.466 17 162.066 26.5 162.066 40.6V41.2H146.966V39.8C146.966 33.4 143.666 30.7 130.366 30.7C119.566 30.7 116.266 32.8 116.266 37.1C116.266 41 118.466 42.4 124.066 43.4L142.866 46.4C157.866 48.8 163.266 56.1 163.266 65.3C163.266 76.2 154.766 86 133.466 86ZM201.775 86C179.975 86 168.875 75 168.875 57V18H183.875V55.9C183.875 67.3 188.175 71.4 201.775 71.4C215.475 71.4 219.675 67.3 219.675 55.9V18H234.675V57C234.675 75 223.675 86 201.775 86ZM254.527 85H237.727L267.027 18H288.427L317.927 85H300.727L294.427 70.2H260.927L254.527 85ZM273.027 42.1L266.727 56.7H288.627L282.327 42.1L278.227 31.7H277.127L273.027 42.1ZM376.326 85H321.426V18H336.426V71.5H376.326V85ZM397.363 85H382.363V18H397.363V85ZM435.615 86C415.315 86 403.915 78 403.915 62.4V61.8H418.915V63.6C418.915 69.8 422.015 72.3 435.615 72.3C447.615 72.3 450.415 70.5 450.415 66C450.415 61.9 448.115 60.4 441.215 59.2L422.415 56.5C410.415 54.6 403.315 48.6 403.315 37.7C403.315 27.6 411.515 17 434.015 17C454.615 17 464.215 26.5 464.215 40.6V41.2H449.115V39.8C449.115 33.4 445.815 30.7 432.515 30.7C421.715 30.7 418.415 32.8 418.415 37.1C418.415 41 420.615 42.4 426.215 43.4L445.015 46.4C460.015 48.8 465.415 56.1 465.415 65.3C465.415 76.2 456.915 86 435.615 86ZM528.223 85H471.523V18H528.223V31.5H486.523V44.6H526.723V58H486.523V71.5H528.223V85Z" fill="#FCEED2"/>
<line y1="216" x2="648" y2="216" stroke="#FCEED2" stroke-width="2"/>
</svg>
