<svg width="649" height="176" viewBox="0 0 649 176" fill="none" xmlns="http://www.w3.org/2000/svg">
<path fill-rule="evenodd" clip-rule="evenodd" d="M57.9806 175H38.8806V151.403L7.45508 104H30.7631L44.1671 124.525L48.6306 131.698L53.094 124.525L66.498 104H89.9361L57.9806 151.51V175ZM48.0806 134.6L42.4806 125.6L29.6806 106H11.1806L40.8806 150.8V173H55.9806V150.9L86.1806 106H67.5806L54.7806 125.6L49.1806 134.6H48.0806ZM163.683 104H182.683V143.9C182.683 149.436 183.745 152.561 185.857 154.426C188.046 156.359 191.862 157.4 198.583 157.4C205.358 157.4 209.169 156.357 211.343 154.429C213.442 152.568 214.483 149.446 214.483 143.9V104H233.483V145C233.483 154.415 230.594 162.26 224.592 167.728C218.619 173.171 209.845 176 198.583 176C187.369 176 178.597 173.17 172.613 167.73C166.6 162.264 163.683 154.42 163.683 145V104ZM256.034 175H237.034V104H276.034C284.543 104 291.512 105.877 296.398 109.67C301.357 113.519 303.934 119.16 303.934 126.1C303.934 131.947 302.233 136.856 298.621 140.455C296.102 142.963 292.773 144.716 288.73 145.754C289.617 146.315 290.412 146.947 291.139 147.652C293.011 149.466 294.33 151.674 295.596 154.053C295.597 154.055 295.599 154.058 295.6 154.061L306.884 175H284.93L275.163 156.528L275.159 156.522C273.873 154.044 272.8 152.739 271.377 151.949C269.898 151.129 267.749 150.7 263.934 150.7H256.034V175ZM285.64 146.388C284.876 146.061 284.039 145.771 283.113 145.521C283.087 145.514 283.061 145.507 283.034 145.5V144.7C283.108 144.693 283.181 144.686 283.254 144.679C284.159 144.587 285.032 144.468 285.872 144.322C296.58 142.457 301.934 136.148 301.934 126.1C301.934 113.3 292.534 106 276.034 106H239.034V173H254.034V148.7H263.934C271.734 148.7 274.234 150.4 276.934 155.6L286.134 173H303.534L293.834 155C291.733 151.05 289.774 148.159 285.64 146.388ZM254.034 137.4V119.5H275.934C283.034 119.5 286.234 121.8 286.234 128.4C286.234 135.4 283.034 137.4 275.934 137.4H254.034ZM256.034 121.5V135.4H275.934C279.409 135.4 281.367 134.884 282.484 133.975C283.489 133.155 284.234 131.647 284.234 128.4C284.234 125.39 283.508 123.875 282.47 123.014C281.338 122.075 279.36 121.5 275.934 121.5H256.034ZM384.868 175H360.797L331.337 104H353.801L373.022 153.533L391.955 104H414.327L384.868 175ZM393.332 106H411.332L383.532 173H362.132L334.332 106H352.432L372.532 157.8H373.532L393.332 106ZM508.671 175H489.671V104H508.671V175ZM585.023 135.9H564.323V132.4C564.323 128.39 563.203 125.831 561.073 124.181C558.824 122.439 555.07 121.4 549.123 121.4C541.914 121.4 537.547 122.696 534.913 125.288C532.288 127.873 530.923 132.206 530.923 139.5C530.923 146.794 532.288 151.127 534.913 153.712C537.547 156.304 541.914 157.6 549.123 157.6C555.07 157.6 558.824 156.561 561.073 154.819C563.203 153.169 564.323 150.61 564.323 146.6V143.1H585.023V146.6C585.023 155.673 581.447 163.114 575.006 168.24C568.615 173.325 559.58 176 548.823 176C537.36 176 527.873 172.466 521.241 166.022C514.605 159.573 511.023 150.398 511.023 139.5C511.023 128.602 514.605 119.427 521.241 112.978C527.873 106.534 537.36 103 548.823 103C559.532 103 568.566 105.676 574.967 110.759C581.419 115.883 585.023 123.322 585.023 132.4V135.9ZM583.019 147.1C582.76 163.804 569.517 174 548.823 174C526.723 174 513.023 160.4 513.023 139.5C513.023 118.6 526.723 105 548.823 105C569.418 105 582.758 115.196 583.019 131.9C583.021 132.066 583.023 132.233 583.023 132.4V133.9H566.323V132.4C566.323 123.6 561.323 119.4 549.123 119.4C534.423 119.4 528.923 124.6 528.923 139.5C528.923 154.4 534.423 159.6 549.123 159.6C561.323 159.6 566.323 155.4 566.323 146.6V145.1H583.023V146.6C583.023 146.767 583.021 146.934 583.019 147.1ZM648.223 175H587.523V104H648.223V121.5H606.523V130.6H646.723V148H606.523V157.5H648.223V175ZM604.523 159.5V146H644.723V132.6H604.523V119.5H646.223V106H589.523V173H646.223V159.5H604.523ZM165.683 145C165.683 163 176.783 174 198.583 174C220.483 174 231.483 163 231.483 145V106H216.483V143.9C216.483 155.3 212.283 159.4 198.583 159.4C184.983 159.4 180.683 155.3 180.683 143.9V106H165.683V145ZM506.671 173V106H491.671V173H506.671Z" fill="#FCEED2"/>
<path d="M99.757 107.997C90.2082 109.972 84.9399 119.521 80.3301 132.691C107.001 108.985 138.94 118.862 157.05 133.349C154.416 125.775 153.561 118.256 143.221 110.301C134.66 103.715 123.794 108.436 118.855 111.948C116.33 110.082 107.989 106.294 99.757 107.997Z" fill="#FB6D33"/>
<path fill-rule="evenodd" clip-rule="evenodd" d="M80 140.265C85.1586 134.228 99.9537 122.353 117.866 123.143C135.778 123.933 151.452 134.887 157.049 140.265C151.781 145.534 136.569 156.005 117.866 155.742C99.1635 155.478 84.8293 145.314 80 140.265ZM118.195 153.467C125.802 153.467 131.969 147.3 131.969 139.693C131.969 132.087 125.802 125.92 118.195 125.92C110.589 125.92 104.422 132.087 104.422 139.693C104.422 147.3 110.589 153.467 118.195 153.467Z" fill="#FCEED2"/>
<path d="M155.731 148.496C119.182 173.517 92.84 154.094 80.9863 147.838C85.1571 155.74 95.1449 173.521 119.84 173.521C145.523 173.521 152.548 157.496 155.731 148.496Z" fill="#FB6D33"/>
<path d="M427.757 107.997C418.208 109.972 412.94 119.521 408.33 132.691C435.001 108.985 466.94 118.862 485.05 133.349C482.416 125.775 481.561 118.256 471.221 110.301C462.66 103.715 451.794 108.436 446.855 111.948C444.33 110.082 435.989 106.294 427.757 107.997Z" fill="#B759EB"/>
<path fill-rule="evenodd" clip-rule="evenodd" d="M408 140.265C413.159 134.228 427.954 122.353 445.866 123.143C463.778 123.933 479.452 134.887 485.049 140.265C479.781 145.534 464.569 156.005 445.866 155.742C427.163 155.478 412.829 145.314 408 140.265ZM446.195 153.467C453.802 153.467 459.969 147.3 459.969 139.693C459.969 132.087 453.802 125.92 446.195 125.92C438.589 125.92 432.422 132.087 432.422 139.693C432.422 147.3 438.589 153.467 446.195 153.467Z" fill="#FCEED2"/>
<path d="M483.731 148.496C447.182 173.517 420.84 154.094 408.986 147.838C413.157 155.74 423.145 173.521 447.84 173.521C473.523 173.521 480.548 157.496 483.731 148.496Z" fill="#B759EB"/>
<path d="M49.2234 68H27.8234L0.0234375 0.999998H18.1234L38.2234 52.8H39.2234L59.0234 0.999998H77.0234L49.2234 68Z" fill="#FCEED2"/>
<path d="M95.2141 68H80.2141V0.999998H95.2141V68Z" fill="#FCEED2"/>
<path d="M133.466 69C113.166 69 101.766 61 101.766 45.4V44.8H116.766V46.6C116.766 52.8 119.866 55.3 133.466 55.3C145.466 55.3 148.266 53.5 148.266 49C148.266 44.9 145.966 43.4 139.066 42.2L120.266 39.5C108.266 37.6 101.166 31.6 101.166 20.7C101.166 10.6 109.366 0 131.866 0C152.466 0 162.066 9.49999 162.066 23.6V24.2H146.966V22.8C146.966 16.4 143.666 13.7 130.366 13.7C119.566 13.7 116.266 15.8 116.266 20.1C116.266 24 118.466 25.4 124.066 26.4L142.866 29.4C157.866 31.8 163.266 39.1 163.266 48.3C163.266 59.2 154.766 69 133.466 69Z" fill="#FCEED2"/>
<path d="M201.774 69C179.974 69 168.874 58 168.874 40V0.999998H183.874V38.9C183.874 50.3 188.174 54.4 201.774 54.4C215.474 54.4 219.674 50.3 219.674 38.9V0.999998H234.674V40C234.674 58 223.674 69 201.774 69Z" fill="#FCEED2"/>
<path d="M254.526 68H237.726L267.026 0.999998H288.426L317.926 68H300.726L294.426 53.2H260.926L254.526 68ZM273.026 25.1L266.726 39.7H288.626L282.326 25.1L278.226 14.7H277.126L273.026 25.1Z" fill="#FCEED2"/>
<path d="M376.325 68H321.425V0.999998H336.425V54.5H376.325V68Z" fill="#FCEED2"/>
<path d="M397.362 68H382.362V0.999998H397.362V68Z" fill="#FCEED2"/>
<path d="M435.614 69C415.314 69 403.914 61 403.914 45.4V44.8H418.914V46.6C418.914 52.8 422.014 55.3 435.614 55.3C447.614 55.3 450.414 53.5 450.414 49C450.414 44.9 448.114 43.4 441.214 42.2L422.414 39.5C410.414 37.6 403.314 31.6 403.314 20.7C403.314 10.6 411.514 0 434.014 0C454.614 0 464.214 9.49999 464.214 23.6V24.2H449.114V22.8C449.114 16.4 445.814 13.7 432.514 13.7C421.714 13.7 418.414 15.8 418.414 20.1C418.414 24 420.614 25.4 426.214 26.4L445.014 29.4C460.014 31.8 465.414 39.1 465.414 48.3C465.414 59.2 456.914 69 435.614 69Z" fill="#FCEED2"/>
<path d="M528.223 68H471.523V0.999998H528.223V14.5H486.523V27.6H526.723V41H486.523V54.5H528.223V68Z" fill="#FCEED2"/>
</svg>
