<svg width="260" height="67" viewBox="0 0 260 67" fill="none" xmlns="http://www.w3.org/2000/svg">
<path d="M19.3348 1.92911C10.4716 3.77045 5.58153 12.6703 1.30273 24.9451C26.0587 2.84978 55.7046 12.056 72.5142 25.5584C70.0692 18.4991 69.2761 11.4913 59.6778 4.07679C51.7315 -2.06163 41.6457 2.33861 37.0613 5.61202C34.7181 3.87298 26.9755 0.341748 19.3348 1.92911Z" fill="#BD0606" stroke="#BD0606"/>
<path d="M36.1473 16.0467C19.5211 15.3102 5.78818 26.3787 1 32.005C5.48255 36.711 18.7876 46.1843 36.1473 46.4298C53.507 46.6753 67.627 36.9156 72.5171 32.005C67.3214 26.9925 52.7735 16.7833 36.1473 16.0467Z" fill="#FCEED2"/>
<ellipse cx="36.4507" cy="31.4702" rx="12.7846" ry="12.8374" fill="#221E1F"/>
<path d="M71.2918 39.6763C37.367 62.996 12.9167 44.8934 1.91406 39.0625C5.78536 46.4279 15.0561 62.9999 37.9782 62.9999C61.8173 62.9999 68.3373 48.0646 71.2918 39.6763Z" fill="#BD0606" stroke="#BD0606"/>
<path d="M98.0761 31H93.2761V9.56H98.0761V18.072H103.42L109.116 9.56H114.876L107.42 20.12L114.78 31H109.02L103.484 22.744H98.0761V31ZM127.129 31.32C120.025 31.32 115.609 26.968 115.609 20.28C115.609 13.592 120.025 9.24 127.129 9.24C134.393 9.24 138.777 13.592 138.777 20.28C138.777 26.968 134.393 31.32 127.129 31.32ZM127.129 26.712C131.833 26.712 133.657 25.048 133.657 20.28C133.657 15.512 131.833 13.848 127.129 13.848C122.425 13.848 120.697 15.512 120.697 20.28C120.697 25.048 122.425 26.712 127.129 26.712ZM145.67 31H140.87V9.56H152.71C157.99 9.56 160.998 11.896 160.998 15.992C160.998 19.48 158.982 21.56 154.95 21.944V22.2C156.87 22.712 157.606 23.736 158.406 25.24L161.51 31H155.942L152.998 25.432C152.134 23.768 151.334 23.224 148.838 23.224H145.67V31ZM145.67 13.88V19.608H152.678C154.95 19.608 155.974 18.968 155.974 16.728C155.974 14.616 154.95 13.88 152.678 13.88H145.67ZM174.962 31H170.162V13.88H162.194V9.56H182.93V13.88H174.962V31ZM189.451 31H184.651V9.56H189.451V18.072H194.795L200.491 9.56H206.251L198.795 20.12L206.155 31H200.395L194.859 22.744H189.451V31ZM212.264 31H207.464V9.56H212.264V31ZM223.512 31.32C216.568 31.32 213.976 27.96 213.976 22.296V21.368H219.064V22.296C219.064 25.464 219.704 26.648 223.512 26.648C227.288 26.648 228.024 25.528 228.024 22.52V9.56H233.112V22.52C233.112 28.024 230.488 31.32 223.512 31.32ZM240.326 31H235.526V9.56H240.326V18.072H245.67L251.366 9.56H257.126L249.67 20.12L257.03 31H251.27L245.734 22.744H240.326V31ZM95.5511 59H93.1211V43.925H105.114V46.1075H95.5511V50.7875H104.776V52.9475H95.5511V59ZM109.35 59H106.92V43.925H109.35V59ZM123.323 59H111.6V43.925H114.03V56.8175H123.323V59ZM127.324 59H124.894V43.925H128.201L132.544 52.655L133.916 55.7825H134.096L135.424 52.655L139.721 43.925H143.029V59H140.599V49.7525L140.689 47.57H140.509L139.586 49.7525L135.424 58.1H132.499L128.336 49.7525L127.414 47.57H127.234L127.324 49.7525V59ZM155.405 59H152.975V43.925H164.967V46.1075H155.405V50.7875H164.63V52.9475H155.405V59ZM178.833 59H166.773V43.925H178.833V46.1075H169.203V50.3375H178.496V52.4975H169.203V56.8175H178.833V59ZM187.049 59.225C182.549 59.225 180.254 57.245 180.254 54.0725V53.9375H182.684V54.2975C182.684 56.0975 183.741 56.9975 187.049 56.9975C189.929 56.9975 190.941 56.3675 190.941 54.95C190.941 53.645 190.176 53.15 188.264 52.79L184.574 52.1825C182.031 51.7325 180.231 50.5625 180.231 48.0875C180.231 45.905 182.031 43.7 186.711 43.7C191.121 43.7 193.124 45.905 193.124 48.8525V48.9875H190.716V48.695C190.716 46.85 189.614 45.9275 186.486 45.9275C183.741 45.9275 182.661 46.6025 182.661 47.9525C182.661 49.2575 183.426 49.685 185.204 50.0675L188.871 50.6975C191.886 51.2375 193.371 52.61 193.371 54.815C193.371 57.11 191.504 59.225 187.049 59.225ZM202.589 59H200.181V46.1075H194.241V43.925H208.506V46.1075H202.589V59ZM212.358 59H209.928V43.925H212.358V59ZM223.248 59H219.805L213.37 43.925H216.25L221.47 56.5475H221.65L226.825 43.925H229.683L223.248 59ZM232.289 59H229.589L236.316 43.925H239.736L246.464 59H243.719L241.986 55.085H234.021L232.289 59ZM237.036 48.3125L234.989 52.9025H241.019L238.971 48.3125L238.094 46.175H237.914L237.036 48.3125ZM259.311 59H247.589V43.925H250.019V56.8175H259.311V59Z" fill="#221E1F"/>
</svg>
