<svg width="189" height="237" viewBox="0 0 189 237" fill="none" xmlns="http://www.w3.org/2000/svg">
<path d="M1 229L0 229L4.37044e-08 230L0.999999 230L1 229ZM188.707 229.707C189.098 229.317 189.098 228.683 188.707 228.293L182.343 221.929C181.953 221.538 181.319 221.538 180.929 221.929C180.538 222.319 180.538 222.953 180.929 223.343L186.586 229L180.929 234.657C180.538 235.047 180.538 235.681 180.929 236.071C181.319 236.462 181.953 236.462 182.343 236.071L188.707 229.707ZM-5.77798e-06 1.53025e-05L0 229L2 229L1.99999 1.52151e-05L-5.77798e-06 1.53025e-05ZM0.999999 230L188 230L188 228L1 228L0.999999 230Z" fill="#FB6D33"/>
</svg>
