<svg width="1547" height="156" viewBox="0 0 1547 156" fill="none" xmlns="http://www.w3.org/2000/svg">
<path d="M410 71.0001L0 71" stroke="#B759EB" stroke-width="2"/>
<path d="M1539 71.3837H1540V70.3837H1539V71.3837ZM1230.08 71.3837V72.3837H1230.62L1230.91 71.9326L1230.08 71.3837ZM1256.89 30.5485L1257.76 30.0618L1256.96 28.6197L1256.05 29.9997L1256.89 30.5485ZM1279.64 71.3837L1278.76 71.8704L1279.46 73.1173L1280.39 72.0386L1279.64 71.3837ZM1339.76 2L1340.59 1.44148L1339.86 0.357792L1339.01 1.34513L1339.76 2ZM1386.48 71.3837L1385.65 71.9422L1385.95 72.3837H1386.48V71.3837ZM1538.29 155.707C1538.68 156.098 1539.32 156.098 1539.71 155.707L1546.07 149.343C1546.46 148.953 1546.46 148.319 1546.07 147.929C1545.68 147.538 1545.05 147.538 1544.66 147.929L1539 153.586L1533.34 147.929C1532.95 147.538 1532.32 147.538 1531.93 147.929C1531.54 148.319 1531.54 148.953 1531.93 149.343L1538.29 155.707ZM1230.08 70.3837H1129V72.3837H1230.08V70.3837ZM1256.05 29.9997L1229.24 70.8349L1230.91 71.9326L1257.72 31.0974L1256.05 29.9997ZM1280.51 70.897L1257.76 30.0618L1256.01 31.0352L1278.76 71.8704L1280.51 70.897ZM1339.01 1.34513L1278.88 70.7288L1280.39 72.0386L1340.52 2.65487L1339.01 1.34513ZM1539 70.3837H1386.48V72.3837H1539V70.3837ZM1387.31 70.8252L1340.59 1.44148L1338.93 2.55852L1385.65 71.9422L1387.31 70.8252ZM1538 71.3837V155H1540V71.3837H1538Z" fill="#B759EB"/>
</svg>
