<svg width="1592" height="1310" viewBox="0 0 1592 1310" fill="none" xmlns="http://www.w3.org/2000/svg">
<path d="M1587.5 151.001L1587.5 1303.5" stroke="#B759EB" stroke-width="2"/>
<path d="M1541.29 1301.79C1540.9 1302.18 1540.9 1302.82 1541.29 1303.21L1547.66 1309.57C1548.05 1309.96 1548.68 1309.96 1549.07 1309.57C1549.46 1309.18 1549.46 1308.55 1549.07 1308.16L1543.41 1302.5L1549.07 1296.84C1549.46 1296.45 1549.46 1295.82 1549.07 1295.43C1548.68 1295.04 1548.05 1295.04 1547.66 1295.43L1541.29 1301.79ZM1542 1303.5H1587.5V1301.5H1542V1303.5Z" fill="#B759EB"/>
<path d="M444 81L0 81" stroke="#B759EB" stroke-width="2"/>
<path d="M1129.5 80H1242.41L1272.36 34.0938L1297.77 80L1364.94 2L1417.12 80H1587.5V174" stroke="#B759EB" stroke-width="2"/>
</svg>
