<svg width="1409" height="175" viewBox="0 0 1409 175" fill="none" xmlns="http://www.w3.org/2000/svg">
<path d="M389 81L0 81.0011" stroke="#B759EB" stroke-width="2"/>
<path d="M1401.5 80H1402.5V79H1401.5V80ZM1100.91 80V81H1101.45L1101.75 80.5464L1100.91 80ZM1130.86 34.0938L1131.74 33.6094L1130.93 32.1559L1130.02 33.5473L1130.86 34.0938ZM1156.27 80L1155.4 80.4843L1156.09 81.7408L1157.03 80.6525L1156.27 80ZM1223.44 2L1224.27 1.44392L1223.54 0.351232L1222.68 1.3475L1223.44 2ZM1275.62 80L1274.79 80.5561L1275.09 81H1275.62V80ZM1400.79 174.707C1401.18 175.098 1401.82 175.098 1402.21 174.707L1408.57 168.343C1408.96 167.953 1408.96 167.319 1408.57 166.929C1408.18 166.538 1407.55 166.538 1407.16 166.929L1401.5 172.586L1395.84 166.929C1395.45 166.538 1394.82 166.538 1394.43 166.929C1394.04 167.319 1394.04 167.953 1394.43 168.343L1400.79 174.707ZM1100.91 79H1012V81H1100.91V79ZM1130.02 33.5473L1100.07 79.4536L1101.75 80.5464L1131.7 34.6402L1130.02 33.5473ZM1157.15 79.5157L1131.74 33.6094L1129.99 34.5781L1155.4 80.4843L1157.15 79.5157ZM1222.68 1.3475L1155.52 79.3475L1157.03 80.6525L1224.19 2.6525L1222.68 1.3475ZM1401.5 79H1275.62V81H1401.5V79ZM1276.45 79.4439L1224.27 1.44392L1222.6 2.55608L1274.79 80.5561L1276.45 79.4439ZM1400.5 80V174H1402.5V80H1400.5Z" fill="#B759EB"/>
</svg>
