<svg width="122" height="70" viewBox="0 0 122 70" fill="none" xmlns="http://www.w3.org/2000/svg">
<path d="M1 62L0 62L4.37095e-08 63L1 63L1 62ZM121.207 62.7071C121.598 62.3166 121.598 61.6834 121.207 61.2929L114.843 54.9289C114.453 54.5384 113.819 54.5384 113.429 54.9289C113.038 55.3195 113.038 55.9526 113.429 56.3431L119.086 62L113.429 67.6569C113.038 68.0474 113.038 68.6805 113.429 69.0711C113.819 69.4616 114.453 69.4616 114.843 69.0711L121.207 62.7071ZM-2.78984e-08 -3.04739e-05L0 62L2 62L2 -3.05613e-05L-2.78984e-08 -3.04739e-05ZM1 63L120.5 63L120.5 61L1 61L1 63Z" fill="#FCEED2"/>
</svg>
