<svg width="53" height="73" viewBox="0 0 53 73" fill="none" xmlns="http://www.w3.org/2000/svg">
<path d="M26.7621 70.4452L26.5045 70.9144L1.16857 24.3071L16.8906 1H36.1156L36.5202 1.58781C36.9674 2.23764 37.6062 3.16659 38.3728 4.28296C39.9061 6.51579 41.9503 9.49795 43.9943 12.4959C46.0387 15.4945 48.0814 18.5066 49.6122 20.8C50.3781 21.9475 51.0129 22.9107 51.455 23.6008C51.6335 23.8795 51.7774 24.1086 51.8845 24.2849C51.8621 24.3296 51.8376 24.378 51.8111 24.4301C51.6208 24.8041 51.3393 25.3428 50.9776 26.0256C50.2551 27.3898 49.2216 29.3131 47.9797 31.6097C45.4965 36.202 42.1848 42.2779 38.8725 48.3391C35.5603 54.3999 32.2481 60.4448 29.7638 64.9745C28.5217 67.2394 27.4866 69.1254 26.7621 70.4452ZM26.5 32.751C28.7702 32.751 30.9494 31.8578 32.5575 30.2649C34.166 28.6716 35.0714 26.5086 35.0714 24.2512C35.0714 21.9939 34.166 19.8309 32.5575 18.2376C30.9494 16.6446 28.7702 15.7514 26.5 15.7514C24.2298 15.7514 22.0506 16.6446 20.4425 18.2376C18.834 19.8309 17.9286 21.9939 17.9286 24.2512C17.9286 26.5086 18.834 28.6716 20.4425 30.2649C22.0506 31.8578 24.2298 32.751 26.5 32.751Z" stroke="#DB4132" stroke-width="2"/>
</svg>
