<svg width="53" height="73" viewBox="0 0 53 73" fill="none" xmlns="http://www.w3.org/2000/svg">
<path d="M26.5 73L0 24.2512L16.3589 0H36.6411C36.6411 0 53 23.7366 53 24.2512C53 24.7659 26.5 73 26.5 73ZM26.5 31.751C28.5081 31.751 30.4339 30.9609 31.8538 29.5544C33.2737 28.1479 34.0714 26.2403 34.0714 24.2512C34.0714 22.2622 33.2737 20.3545 31.8538 18.9481C30.4339 17.5416 28.5081 16.7514 26.5 16.7514C24.4919 16.7514 22.5661 17.5416 21.1462 18.9481C19.7263 20.3545 18.9286 22.2622 18.9286 24.2512C18.9286 26.2403 19.7263 28.1479 21.1462 29.5544C22.5661 30.9609 24.4919 31.751 26.5 31.751Z" fill="#DB4132"/>
</svg>
