<svg width="257" height="66" viewBox="0 0 257 66" fill="none" xmlns="http://www.w3.org/2000/svg">
<path d="M19.3348 2.92911C10.4716 4.77045 5.58153 13.6703 1.30273 25.9451C26.0587 3.84978 55.7046 13.056 72.5142 26.5584C70.0692 19.4991 69.2761 12.4913 59.6778 5.07679C51.7315 -1.06163 41.6457 3.33861 37.0613 6.61202C34.7181 4.87298 26.9755 1.34175 19.3348 2.92911Z" fill="#BD0606" stroke="#BD0606"/>
<path d="M36.1473 17.0467C19.5211 16.3102 5.78818 27.3787 1 33.005C5.48255 37.711 18.7876 47.1843 36.1473 47.4298C53.507 47.6753 67.627 37.9156 72.5171 33.005C67.3214 27.9925 52.7735 17.7833 36.1473 17.0467Z" fill="#FCEED2"/>
<ellipse cx="36.4507" cy="32.4702" rx="12.7846" ry="12.8374" fill="#221E1F"/>
<path d="M71.2918 40.6763C37.367 63.996 12.9167 45.8934 1.91406 40.0625C5.78536 47.4279 15.0561 63.9999 37.9782 63.9999C61.8173 63.9999 68.3373 49.0646 71.2918 40.6763Z" fill="#BD0606" stroke="#BD0606"/>
<path d="M95.0761 30H90.2761V8.56H95.0761V17.072H100.42L106.116 8.56H111.876L104.42 19.12L111.78 30H106.02L100.484 21.744H95.0761V30ZM124.129 30.32C117.025 30.32 112.609 25.968 112.609 19.28C112.609 12.592 117.025 8.24 124.129 8.24C131.393 8.24 135.777 12.592 135.777 19.28C135.777 25.968 131.393 30.32 124.129 30.32ZM124.129 25.712C128.833 25.712 130.657 24.048 130.657 19.28C130.657 14.512 128.833 12.848 124.129 12.848C119.425 12.848 117.697 14.512 117.697 19.28C117.697 24.048 119.425 25.712 124.129 25.712ZM142.67 30H137.87V8.56H149.71C154.99 8.56 157.998 10.896 157.998 14.992C157.998 18.48 155.982 20.56 151.95 20.944V21.2C153.87 21.712 154.606 22.736 155.406 24.24L158.51 30H152.942L149.998 24.432C149.134 22.768 148.334 22.224 145.838 22.224H142.67V30ZM142.67 12.88V18.608H149.678C151.95 18.608 152.974 17.968 152.974 15.728C152.974 13.616 151.95 12.88 149.678 12.88H142.67ZM171.962 30H167.162V12.88H159.194V8.56H179.93V12.88H171.962V30ZM186.451 30H181.651V8.56H186.451V17.072H191.795L197.491 8.56H203.251L195.795 19.12L203.155 30H197.395L191.859 21.744H186.451V30ZM209.264 30H204.464V8.56H209.264V30ZM220.512 30.32C213.568 30.32 210.976 26.96 210.976 21.296V20.368H216.064V21.296C216.064 24.464 216.704 25.648 220.512 25.648C224.288 25.648 225.024 24.528 225.024 21.52V8.56H230.112V21.52C230.112 27.024 227.488 30.32 220.512 30.32ZM237.326 30H232.526V8.56H237.326V17.072H242.67L248.366 8.56H254.126L246.67 19.12L254.03 30H248.27L242.734 21.744H237.326V30ZM92.5511 58H90.1211V42.925H102.114V45.1075H92.5511V49.7875H101.776V51.9475H92.5511V58ZM106.35 58H103.92V42.925H106.35V58ZM120.323 58H108.6V42.925H111.03V55.8175H120.323V58ZM124.324 58H121.894V42.925H125.201L129.544 51.655L130.916 54.7825H131.096L132.424 51.655L136.721 42.925H140.029V58H137.599V48.7525L137.689 46.57H137.509L136.586 48.7525L132.424 57.1H129.499L125.336 48.7525L124.414 46.57H124.234L124.324 48.7525V58ZM152.405 58H149.975V42.925H161.967V45.1075H152.405V49.7875H161.63V51.9475H152.405V58ZM175.833 58H163.773V42.925H175.833V45.1075H166.203V49.3375H175.496V51.4975H166.203V55.8175H175.833V58ZM184.049 58.225C179.549 58.225 177.254 56.245 177.254 53.0725V52.9375H179.684V53.2975C179.684 55.0975 180.741 55.9975 184.049 55.9975C186.929 55.9975 187.941 55.3675 187.941 53.95C187.941 52.645 187.176 52.15 185.264 51.79L181.574 51.1825C179.031 50.7325 177.231 49.5625 177.231 47.0875C177.231 44.905 179.031 42.7 183.711 42.7C188.121 42.7 190.124 44.905 190.124 47.8525V47.9875H187.716V47.695C187.716 45.85 186.614 44.9275 183.486 44.9275C180.741 44.9275 179.661 45.6025 179.661 46.9525C179.661 48.2575 180.426 48.685 182.204 49.0675L185.871 49.6975C188.886 50.2375 190.371 51.61 190.371 53.815C190.371 56.11 188.504 58.225 184.049 58.225ZM199.589 58H197.181V45.1075H191.241V42.925H205.506V45.1075H199.589V58ZM209.358 58H206.928V42.925H209.358V58ZM220.248 58H216.805L210.37 42.925H213.25L218.47 55.5475H218.65L223.825 42.925H226.683L220.248 58ZM229.289 58H226.589L233.316 42.925H236.736L243.464 58H240.719L238.986 54.085H231.021L229.289 58ZM234.036 47.3125L231.989 51.9025H238.019L235.971 47.3125L235.094 45.175H234.914L234.036 47.3125ZM256.311 58H244.589V42.925H247.019V55.8175H256.311V58Z" fill="#FCEED2"/>
</svg>
